<svg xmlns="http://www.w3.org/2000/svg" viewBox="0 0 307.58 74.07"><defs><style>.cls-1{fill:#d00000;}.cls-2{fill:#6a040f;}</style></defs><title>logo_горизонтальный</title><g id="Слой_2" data-name="Слой 2"><g id="Слой_1-2" data-name="Слой 1"><path class="cls-1" d="M100.32,58.14H94.51V34.68h4.38l8.45,12.07,8.41-12.07h4.41V58.14h-5.87V46.87l-5.87,8.23h-2.23l-5.87-8.23Z"/><path class="cls-1" d="M134.29,34.68h8.8V58.14h-5.84V50.72a19.94,19.94,0,0,1-2.77.25l-4.13,7.17h-6.6L128.86,50q-4-1.94-4-7.14a7.68,7.68,0,0,1,2.38-5.87Q129.66,34.67,134.29,34.68Zm.29,11.24a16.46,16.46,0,0,0,2.67-.25V40h-2.7c-2.44,0-3.65,1-3.65,2.92S132.12,45.92,134.58,45.92Z"/><path class="cls-1" d="M159.22,58.49a11.94,11.94,0,0,1-8.61-3.33,11.54,11.54,0,0,1-3.46-8.67,11.88,11.88,0,0,1,12.1-12.22A13.39,13.39,0,0,1,165,35.51a11.25,11.25,0,0,1,4.3,3.39l-3.78,4a8,8,0,0,0-5.9-2.92,6.2,6.2,0,0,0-4.54,1.84,6.45,6.45,0,0,0-1.81,4.67,6.19,6.19,0,0,0,6.32,6.38,7.65,7.65,0,0,0,6-3l3.94,3.77a12.5,12.5,0,0,1-4.35,3.53A13.1,13.1,0,0,1,159.22,58.49Z"/><path class="cls-1" d="M183.66,58.53a12.05,12.05,0,0,1-8.79-3.5,11.66,11.66,0,0,1-3.49-8.6,12,12,0,0,1,12.25-12.16,11.91,11.91,0,0,1,8.77,3.52,12.31,12.31,0,0,1,0,17.24A11.86,11.86,0,0,1,183.66,58.53Zm0-5.88A5.92,5.92,0,0,0,188,50.87a6,6,0,0,0,1.78-4.47A6.19,6.19,0,0,0,188,41.92a6.13,6.13,0,0,0-8.67,0,6.48,6.48,0,0,0,0,8.92A5.92,5.92,0,0,0,183.63,52.65Z"/><path class="cls-2" d="M207.64,58.56a12.3,12.3,0,0,1-9.56-4.07l3-4.35a9.21,9.21,0,0,0,6.67,3,3.6,3.6,0,0,0,1.87-.46,1.42,1.42,0,0,0,.77-1.26c0-.74-.64-1.34-1.91-1.81l-2.1-.7c-1.5-.55-2.49-.95-3-1.2a6.58,6.58,0,0,1-3.87-6.1A6.48,6.48,0,0,1,202,36.4a9.4,9.4,0,0,1,6.29-2.07,12.72,12.72,0,0,1,8.35,3l-2.76,4.51a8.49,8.49,0,0,0-2.61-1.39,8.82,8.82,0,0,0-2.89-.54,3.36,3.36,0,0,0-1.84.43,1.26,1.26,0,0,0-.66,1.09c0,.68.62,1.26,1.87,1.75l2.06.76q1.71.6,2.7,1c3,1.27,4.48,3.32,4.48,6.15a6.81,6.81,0,0,1-2.54,5.4A10.22,10.22,0,0,1,207.64,58.56Z"/><path class="cls-2" d="M225.13,58.14V40.4h-6.51V34.68h19V40.4h-6.48V58.14Z"/><path class="cls-2" d="M251.42,58.53a12.06,12.06,0,0,1-8.8-3.5,11.66,11.66,0,0,1-3.49-8.6,12,12,0,0,1,12.26-12.16,11.89,11.89,0,0,1,8.76,3.52,11.74,11.74,0,0,1,3.52,8.64,11.69,11.69,0,0,1-3.52,8.6A11.85,11.85,0,0,1,251.42,58.53Zm0-5.88a6,6,0,0,0,4.38-1.78,6.06,6.06,0,0,0,1.77-4.47,6.19,6.19,0,0,0-1.84-4.48,5.84,5.84,0,0,0-4.31-1.78A5.91,5.91,0,0,0,247,42a6.5,6.5,0,0,0,0,8.92A5.92,5.92,0,0,0,251.39,52.65Z"/><path class="cls-2" d="M286.91,58.14h-6.79L276,50.37h-2.32v7.77h-5.93V34.68h9.77q4.23,0,6.42,2.22a7.54,7.54,0,0,1,2.19,5.56A8,8,0,0,1,285,46.6a7.1,7.1,0,0,1-3.19,2.85Zm-9.46-18h-3.78v5.08h3.56A2.41,2.41,0,0,0,279.71,44a2.72,2.72,0,0,0,0-2.65A2.16,2.16,0,0,0,277.45,40.11Z"/><path class="cls-2" d="M307.55,58.14H290.63V34.68h16.95v5.49h-11v3.46h10.16V49.1H296.6v3.55h10.95Z"/><path class="cls-1" d="M21.05,74.07V28.68A14.68,14.68,0,0,1,25.47,18a14.59,14.59,0,0,1,10.71-4.42A14.54,14.54,0,0,1,46.84,18l.68.68c.2-.22.41-.45.64-.68a15.19,15.19,0,0,1,21.42,0A14.68,14.68,0,0,1,74,28.68V74.07H66.44V28.68a7.57,7.57,0,1,0-15.13,0V74.07H43.74V28.68a7.61,7.61,0,0,0-7.56-7.56,7.55,7.55,0,0,0-7.57,7.56V74.07Z"/><path class="cls-2" d="M94.57,1.55A4.92,4.92,0,0,0,94.11,0C94,.05,94,.06,94,.09c-.13.55-.25,1.11-.36,1.66-.77,4-3.27,7.08-7.48,9.18a50.1,50.1,0,0,1-13.28,4.2l-1.22.28.28.25a15,15,0,0,1,3.72,6.05c5-1.19,9.82-2.75,12.43-4.31a13.69,13.69,0,0,0,6.47-7.71A15.51,15.51,0,0,0,94.57,1.55Z"/><path class="cls-2" d="M.51,1.55A4.94,4.94,0,0,1,1,0c.09.05.15.06.16.09.12.55.24,1.11.35,1.66.77,4,3.27,7.08,7.48,9.18a50.21,50.21,0,0,0,13.28,4.2l1.22.28-.28.25a15,15,0,0,0-3.72,6.05C14.47,20.52,9.65,19,7,17.4A13.69,13.69,0,0,1,.57,9.69,15.61,15.61,0,0,1,.51,1.55Z"/></g></g></svg>